Asadera-Regular.ufo
<glyph name="exclam" format="2">
	<advance width="271"/>
	<unicode hex="0021"/>
	<outline>
		<contour>
			<point x="60" y="49" type="curve"/>
			<point x="60" y="10"/>
			<point x="84" y="-11"/>
			<point x="119" y="-11" type="curve" smooth="yes"/>
			<point x="154" y="-11"/>
			<point x="178" y="10"/>
			<point x="178" y="49" type="curve" smooth="yes"/>
			<point x="178" y="86"/>
			<point x="153" y="108"/>
			<point x="119" y="108" type="curve" smooth="yes"/>
			<point x="85" y="108"/>
			<point x="60" y="86"/>
		</contour>
		<contour>
			<point x="67" y="649" type="line"/>
			<point x="85" y="159" type="line"/>
			<point x="153" y="159" type="line"/>
			<point x="172" y="649" type="line"/>
		</contour>
	</outline>
</glyph>
<glyph name="dollar" format="2">
	<advance width="427"/>
	<unicode hex="0024"/>
	<outline>
		<contour>
			<point x="35" y="50" type="curve"/>
			<point x="67" y="127" type="line"/>
			<point x="135" y="98"/>
			<point x="170" y="89"/>
			<point x="212" y="89" type="curve" smooth="yes"/>
			<point x="269" y="89"/>
			<point x="297" y="106"/>
			<point x="297" y="140" type="curve" smooth="yes"/>
			<point x="297" y="174"/>
			<point x="255" y="188"/>
			<point x="205" y="203" type="curve" smooth="yes"/>
			<point x="132" y="225"/>
			<point x="42" y="254"/>
			<point x="42" y="360" type="curve" smooth="yes"/>
			<point x="42" y="429"/>
			<point x="94" y="476"/>
			<point x="180" y="483" type="curve"/>
			<point x="180" y="576" type="line"/>
			<point x="261" y="576" type="line"/>
			<point x="261" y="479" type="line"/>
			<point x="300" y="473"/>
			<point x="342" y="460"/>
			<point x="380" y="443" type="curve"/>
			<point x="351" y="363" type="line"/>
			<point x="307" y="387"/>
			<point x="254" y="402"/>
			<point x="212" y="402" type="curve" smooth="yes"/>
			<point x="164" y="402"/>
			<point x="137" y="386"/>
			<point x="137" y="357" type="curve" smooth="yes"/>
			<point x="137" y="327"/>
			<point x="157" y="313"/>
			<point x="241" y="284" type="curve" smooth="yes"/>
			<point x="355" y="244"/>
			<point x="392" y="209"/>
			<point x="392" y="140" type="curve" smooth="yes"/>
			<point x="392" y="74"/>
			<point x="343" y="25"/>
			<point x="261" y="10" type="curve"/>
			<point x="261" y="-87" type="line"/>
			<point x="180" y="-87" type="line"/>
			<point x="180" y="6" type="line"/>
			<point x="124" y="10"/>
			<point x="68" y="27"/>
		</contour>
	</outline>
</glyph>
<glyph name="ampersand" format="2">
	<advance width="636"/>
	<unicode hex="0026"/>
	<outline>
		<contour>
			<point x="55" y="174" type="curve" smooth="yes"/>
			<point x="55" y="72"/>
			<point x="136" y="-11"/>
			<point x="257" y="-11" type="curve" smooth="yes"/>
			<point x="325" y="-11"/>
			<point x="384" y="9"/>
			<point x="430" y="48" type="curve"/>
			<point x="466" y="2"/>
			<point x="487" y="-10"/>
			<point x="530" y="-10" type="curve" smooth="yes"/>
			<point x="555" y="-10" type="line"/>
			<point x="555" y="74" type="line"/>
			<point x="522" y="74"/>
			<point x="502" y="84"/>
			<point x="483" y="109" type="curve"/>
			<point x="520" y="163"/>
			<point x="539" y="234"/>
			<point x="539" y="320" type="curve" smooth="yes"/>
			<point x="539" y="339" type="line"/>
			<point x="467" y="339" type="line"/>
			<point x="467" y="326" type="line" smooth="yes"/>
			<point x="467" y="253"/>
			<point x="458" y="206"/>
			<point x="439" y="172" type="curve"/>
			<point x="243" y="421"/>
			<point x="216" y="462"/>
			<point x="216" y="509" type="curve" smooth="yes"/>
			<point x="216" y="553"/>
			<point x="246" y="580"/>
			<point x="295" y="580" type="curve" smooth="yes"/>
			<point x="326" y="580"/>
			<point x="346" y="572"/>
			<point x="423" y="529" type="curve"/>
			<point x="460" y="605" type="line"/>
			<point x="397" y="643"/>
			<point x="346" y="660"/>
			<point x="294" y="660" type="curve" smooth="yes"/>
			<point x="193" y="660"/>
			<point x="122" y="600"/>
			<point x="122" y="514" type="curve" smooth="yes"/>
			<point x="122" y="465"/>
			<point x="143" y="417"/>
			<point x="193" y="358" type="curve"/>
			<point x="193" y="344" type="line"/>
			<point x="101" y="317"/>
			<point x="55" y="255"/>
		</contour>
		<contour>
			<point x="144" y="186" type="curve" smooth="yes"/>
			<point x="144" y="238"/>
			<point x="180" y="281"/>
			<point x="238" y="298" type="curve"/>
			<point x="385" y="107" type="line"/>
			<point x="352" y="84"/>
			<point x="316" y="72"/>
			<point x="275" y="72" type="curve" smooth="yes"/>
			<point x="199" y="72"/>
			<point x="144" y="120"/>
		</contour>
	</outline>
</glyph>
<glyph name="parenleft" format="2">
	<advance width="288"/>
	<unicode hex="0028"/>
	<outline>
		<contour>
			<point x="199" y="681" type="curve"/>
			<point x="258" y="681" type="line"/>
			<point x="184" y="594"/>
			<point x="139" y="448"/>
			<point x="139" y="293" type="curve" smooth="yes"/>
			<point x="139" y="138"/>
			<point x="184" y="-8"/>
			<point x="258" y="-95" type="curve"/>
			<point x="199" y="-95" type="line"/>
			<point x="107" y="-27"/>
			<point x="45" y="129"/>
			<point x="45" y="293" type="curve" smooth="yes"/>
			<point x="45" y="457"/>
			<point x="107" y="613"/>
		</contour>
	</outline>
</glyph>
<glyph name="asterisk" format="2">
	<advance width="404"/>
	<unicode hex="002A"/>
	<outline>
		<contour>
			<point x="149" y="506" type="curve"/>
			<point x="35" y="516" type="line"/>
			<point x="49" y="592" type="line"/>
			<point x="167" y="567" type="line"/>
			<point x="161" y="680" type="line"/>
			<point x="243" y="680" type="line"/>
			<point x="237" y="567" type="line"/>
			<point x="355" y="592" type="line"/>
			<point x="369" y="516" type="line"/>
			<point x="255" y="506" type="line"/>
			<point x="271" y="469"/>
			<point x="306" y="421"/>
			<point x="337" y="393" type="curve"/>
			<point x="274" y="351" type="line"/>
			<point x="250" y="373"/>
			<point x="222" y="419"/>
			<point x="206" y="462" type="curve"/>
			<point x="198" y="462" type="line"/>
			<point x="182" y="419"/>
			<point x="154" y="375"/>
			<point x="129" y="351" type="curve"/>
			<point x="67" y="393" type="line"/>
			<point x="97" y="419"/>
			<point x="131" y="467"/>
		</contour>
	</outline>
</glyph>
<glyph name="comma" format="2">
	<advance width="159"/>
	<unicode hex="002C"/>
	<outline>
		<contour>
			<point x="43" y="23" type="curve"/>
			<point x="43" y="121" type="line"/>
			<point x="129" y="121" type="line"/>
			<point x="124" y="13"/>
			<point x="109" y="-53"/>
			<point x="68" y="-107" type="curve"/>
			<point x="13" y="-107" type="line"/>
			<point x="30" y="-58"/>
			<point x="43" y="-19"/>
		</contour>
	</outline>
</glyph>
<glyph name="hyphen" format="2">
	<advance width="413"/>
	<unicode hex="002D"/>
	<outline>
		<contour>
			<point x="50" y="324" type="line"/>
			<point x="50" y="241" type="line"/>
			<point x="363" y="241" type="line"/>
			<point x="363" y="324" type="line"/>
		</contour>
	</outline>
</glyph>
<glyph name="period" format="2">
	<advance width="173"/>
	<unicode hex="002E"/>
	<outline>
		<contour>
			<point x="87" y="-10" type="curve" smooth="yes"/>
			<point x="120" y="-10"/>
			<point x="145" y="15"/>
			<point x="145" y="47" type="curve" smooth="yes"/>
			<point x="145" y="78"/>
			<point x="120" y="103"/>
			<point x="87" y="103" type="curve" smooth="yes"/>
			<point x="53" y="103"/>
			<point x="28" y="78"/>
			<point x="28" y="47" type="curve" smooth="yes"/>
			<point x="28" y="15"/>
			<point x="53" y="-10"/>
		</contour>
	</outline>
</glyph>
<glyph name="zero" format="2">
	<advance width="561"/>
	<unicode hex="0030"/>
	<guideline x="423" y="327" angle="0"/>
	<guideline x="282" y="579" angle="90"/>
	<outline>
		<contour>
			<point x="137" y="327" type="curve" smooth="yes"/>
			<point x="137" y="490"/>
			<point x="185" y="579"/>
			<point x="282" y="579" type="curve" smooth="yes"/>
			<point x="379" y="579"/>
			<point x="423" y="490"/>
			<point x="423" y="327" type="curve" smooth="yes"/>
			<point x="423" y="164"/>
			<point x="378" y="72"/>
			<point x="282" y="72" type="curve" smooth="yes"/>
			<point x="186" y="72"/>
			<point x="137" y="164"/>
		</contour>
		<contour>
			<point x="45" y="327" type="curve" smooth="yes"/>
			<point x="45" y="105"/>
			<point x="123" y="-11"/>
			<point x="282" y="-11" type="curve" smooth="yes"/>
			<point x="441" y="-11"/>
			<point x="516" y="109"/>
			<point x="516" y="329" type="curve" smooth="yes"/>
			<point x="516" y="549"/>
			<point x="441" y="662"/>
			<point x="282" y="662" type="curve" smooth="yes"/>
			<point x="123" y="662"/>
			<point x="45" y="549"/>
		</contour>
		<contour>
			<point x="282" y="261" type="curve" smooth="yes"/>
			<point x="322" y="261"/>
			<point x="349" y="287"/>
			<point x="349" y="327" type="curve" smooth="yes"/>
			<point x="349" y="368"/>
			<point x="322" y="394"/>
			<point x="282" y="394" type="curve" smooth="yes"/>
			<point x="242" y="394"/>
			<point x="215" y="368"/>
			<point x="215" y="327" type="curve" smooth="yes"/>
			<point x="215" y="287"/>
			<point x="242" y="261"/>
		</contour>
	</outline>
</glyph>
<glyph name="one" format="2">
	<advance width="404"/>
	<unicode hex="0031"/>
	<outline>
		<contour>
			<point x="77" y="574" type="curve"/>
			<point x="77" y="493" type="line"/>
			<point x="140" y="493"/>
			<point x="173" y="508"/>
			<point x="212" y="552" type="curve"/>
			<point x="221" y="552" type="line"/>
			<point x="221" y="0" type="line"/>
			<point x="311" y="0" type="line"/>
			<point x="311" y="650" type="line"/>
			<point x="209" y="650" type="line"/>
			<point x="168" y="599"/>
			<point x="131" y="578"/>
		</contour>
	</outline>
</glyph>
<glyph name="two" format="2">
	<advance width="537"/>
	<unicode hex="0032"/>
	<outline>
		<contour>
			<point x="77" y="97" type="curve"/>
			<point x="77" y="0" type="line"/>
			<point x="492" y="0" type="line"/>
			<point x="492" y="81" type="line"/>
			<point x="202" y="81" type="line"/>
			<point x="202" y="91" type="line"/>
			<point x="395" y="211"/>
			<point x="488" y="331"/>
			<point x="488" y="459" type="curve" smooth="yes"/>
			<point x="488" y="578"/>
			<point x="408" y="659"/>
			<point x="288" y="659" type="curve" smooth="yes"/>
			<point x="187" y="659"/>
			<point x="107" y="605"/>
			<point x="85" y="522" type="curve"/>
			<point x="148" y="488" type="line"/>
			<point x="176" y="547"/>
			<point x="224" y="579"/>
			<point x="282" y="579" type="curve" smooth="yes"/>
			<point x="353" y="579"/>
			<point x="398" y="531"/>
			<point x="398" y="455" type="curve" smooth="yes"/>
			<point x="398" y="355"/>
			<point x="323" y="271"/>
		</contour>
	</outline>
</glyph>
<glyph name="three" format="2">
	<advance width="541"/>
	<unicode hex="0033"/>
	<outline>
		<contour>
			<point x="119" y="183" type="curve"/>
			<point x="45" y="138" type="line"/>
			<point x="88" y="38"/>
			<point x="161" y="-11"/>
			<point x="267" y="-11" type="curve" smooth="yes"/>
			<point x="401" y="-11"/>
			<point x="496" y="67"/>
			<point x="496" y="178" type="curve" smooth="yes"/>
			<point x="496" y="265"/>
			<point x="435" y="331"/>
			<point x="346" y="340" type="curve"/>
			<point x="346" y="350" type="line"/>
			<point x="420" y="362"/>
			<point x="469" y="418"/>
			<point x="469" y="491" type="curve" smooth="yes"/>
			<point x="469" y="591"/>
			<point x="391" y="660"/>
			<point x="276" y="660" type="curve" smooth="yes"/>
			<point x="174" y="660"/>
			<point x="92" y="605"/>
			<point x="69" y="522" type="curve"/>
			<point x="132" y="488" type="line"/>
			<point x="157" y="548"/>
			<point x="203" y="579"/>
			<point x="267" y="579" type="curve" smooth="yes"/>
			<point x="336" y="579"/>
			<point x="379" y="542"/>
			<point x="379" y="484" type="curve" smooth="yes"/>
			<point x="379" y="422"/>
			<point x="330" y="384"/>
			<point x="248" y="384" type="curve" smooth="yes"/>
			<point x="206" y="384" type="line"/>
			<point x="206" y="309" type="line"/>
			<point x="255" y="309" type="line" smooth="yes"/>
			<point x="339" y="309"/>
			<point x="402" y="256"/>
			<point x="402" y="185" type="curve" smooth="yes"/>
			<point x="402" y="117"/>
			<point x="349" y="70"/>
			<point x="271" y="70" type="curve" smooth="yes"/>
			<point x="200" y="70"/>
			<point x="148" y="109"/>
		</contour>
	</outline>
</glyph>
<glyph name="four" format="2">
	<advance width="557"/>
	<unicode hex="0034"/>
	<outline>
		<contour>
			<point x="40" y="182" type="line"/>
			<point x="40" y="274" type="line"/>
			<point x="168" y="348"/>
			<point x="266" y="501"/>
			<point x="266" y="650" type="curve"/>
			<point x="357" y="650" type="line"/>
			<point x="357" y="482"/>
			<point x="265" y="327"/>
			<point x="148" y="274" type="curve"/>
			<point x="148" y="266" type="line"/>
			<point x="355" y="266" type="line"/>
			<point x="355" y="412" type="line"/>
			<point x="445" y="412" type="line"/>
			<point x="445" y="266" type="line"/>
			<point x="507" y="266" type="line"/>
			<point x="507" y="182" type="line"/>
			<point x="445" y="182" type="line"/>
			<point x="445" y="0" type="line"/>
			<point x="355" y="0" type="line"/>
			<point x="355" y="182" type="line"/>
		</contour>
	</outline>
</glyph>
<glyph name="five" format="2">
	<advance width="573"/>
	<unicode hex="0035"/>
	<outline>
		<contour>
			<point x="77" y="138" type="curve"/>
			<point x="151" y="183" type="line"/>
			<point x="180" y="109"/>
			<point x="232" y="70"/>
			<point x="302" y="70" type="curve" smooth="yes"/>
			<point x="379" y="70"/>
			<point x="434" y="126"/>
			<point x="434" y="202" type="curve" smooth="yes"/>
			<point x="434" y="293"/>
			<point x="388" y="339"/>
			<point x="298" y="339" type="curve" smooth="yes"/>
			<point x="247" y="339"/>
			<point x="213" y="324"/>
			<point x="155" y="277" type="curve"/>
			<point x="113" y="339" type="line"/>
			<point x="143" y="650" type="line"/>
			<point x="471" y="650" type="line"/>
			<point x="471" y="566" type="line"/>
			<point x="219" y="566" type="line"/>
			<point x="200" y="370" type="line"/>
			<point x="208" y="370" type="line"/>
			<point x="235" y="396"/>
			<point x="280" y="412"/>
			<point x="327" y="412" type="curve" smooth="yes"/>
			<point x="457" y="412"/>
			<point x="528" y="337"/>
			<point x="528" y="202" type="curve" smooth="yes"/>
			<point x="528" y="81"/>
			<point x="431" y="-11"/>
			<point x="304" y="-11" type="curve" smooth="yes"/>
			<point x="192" y="-11"/>
			<point x="122" y="35"/>
		</contour>
	</outline>
</glyph>
<glyph name="six" format="2">
	<advance width="550"/>
	<unicode hex="0036"/>
	<outline>
		<contour>
			<point x="55" y="308" type="curve" smooth="yes"/>
			<point x="55" y="107"/>
			<point x="142" y="-11"/>
			<point x="289" y="-11" type="curve" smooth="yes"/>
			<point x="421" y="-11"/>
			<point x="505" y="77"/>
			<point x="505" y="215" type="curve" smooth="yes"/>
			<point x="505" y="352"/>
			<point x="433" y="434"/>
			<point x="311" y="434" type="curve" smooth="yes"/>
			<point x="236" y="434"/>
			<point x="172" y="389"/>
			<point x="151" y="335" type="curve"/>
			<point x="144" y="335" type="line"/>
			<point x="144" y="503"/>
			<point x="196" y="584"/>
			<point x="305" y="584" type="curve" smooth="yes"/>
			<point x="361" y="584"/>
			<point x="409" y="552"/>
			<point x="432" y="501" type="curve"/>
			<point x="500" y="545" type="line"/>
			<point x="463" y="618"/>
			<point x="391" y="660"/>
			<point x="303" y="660" type="curve" smooth="yes"/>
			<point x="140" y="660"/>
			<point x="55" y="539"/>
		</contour>
		<contour>
			<point x="158" y="204" type="curve" smooth="yes"/>
			<point x="158" y="290"/>
			<point x="215" y="354"/>
			<point x="292" y="354" type="curve" smooth="yes"/>
			<point x="364" y="354"/>
			<point x="414" y="297"/>
			<point x="414" y="215" type="curve" smooth="yes"/>
			<point x="414" y="124"/>
			<point x="364" y="65"/>
			<point x="287" y="65" type="curve" smooth="yes"/>
			<point x="216" y="65"/>
			<point x="158" y="128"/>
		</contour>
	</outline>
</glyph>
<glyph name="seven" format="2">
	<advance width="474"/>
	<unicode hex="0037"/>
	<outline>
		<contour>
			<point x="30" y="563" type="line"/>
			<point x="30" y="650" type="line"/>
			<point x="457" y="650" type="line"/>
			<point x="457" y="564" type="line"/>
			<point x="322" y="392"/>
			<point x="262" y="230"/>
			<point x="249" y="0" type="curve"/>
			<point x="147" y="0" type="line"/>
			<point x="161" y="220"/>
			<point x="250" y="454"/>
			<point x="358" y="555" type="curve"/>
			<point x="358" y="563" type="line"/>
		</contour>
	</outline>
</glyph>
<glyph name="eight" format="2">
	<advance width="560"/>
	<unicode hex="0038"/>
	<outline>
		<contour>
			<point x="55" y="175" type="curve" smooth="yes"/>
			<point x="55" y="61"/>
			<point x="142" y="-11"/>
			<point x="280" y="-11" type="curve" smooth="yes"/>
			<point x="418" y="-11"/>
			<point x="505" y="61"/>
			<point x="505" y="175" type="curve" smooth="yes"/>
			<point x="505" y="266"/>
			<point x="457" y="326"/>
			<point x="368" y="345" type="curve"/>
			<point x="368" y="358" type="line"/>
			<point x="429" y="376"/>
			<point x="465" y="428"/>
			<point x="465" y="498" type="curve" smooth="yes"/>
			<point x="465" y="601"/>
			<point x="398" y="660"/>
			<point x="281" y="660" type="curve" smooth="yes"/>
			<point x="279" y="660" type="line" smooth="yes"/>
			<point x="162" y="660"/>
			<point x="95" y="601"/>
			<point x="95" y="498" type="curve" smooth="yes"/>
			<point x="95" y="428"/>
			<point x="131" y="376"/>
			<point x="192" y="358" type="curve"/>
			<point x="192" y="345" type="line"/>
			<point x="103" y="326"/>
			<point x="55" y="266"/>
		</contour>
		<contour>
			<point x="147" y="183" type="curve" smooth="yes"/>
			<point x="147" y="251"/>
			<point x="201" y="298"/>
			<point x="280" y="298" type="curve" smooth="yes"/>
			<point x="364" y="298"/>
			<point x="413" y="255"/>
			<point x="413" y="183" type="curve" smooth="yes"/>
			<point x="413" y="113"/>
			<point x="363" y="70"/>
			<point x="280" y="70" type="curve" smooth="yes"/>
			<point x="197" y="70"/>
			<point x="147" y="113"/>
		</contour>
		<contour>
			<point x="183" y="496" type="curve" smooth="yes"/>
			<point x="183" y="554"/>
			<point x="219" y="589"/>
			<point x="280" y="589" type="curve" smooth="yes"/>
			<point x="341" y="589"/>
			<point x="377" y="555"/>
			<point x="377" y="496" type="curve" smooth="yes"/>
			<point x="377" y="441"/>
			<point x="337" y="402"/>
			<point x="281" y="402" type="curve" smooth="yes"/>
			<point x="279" y="402" type="line" smooth="yes"/>
			<point x="218" y="402"/>
			<point x="183" y="437"/>
		</contour>
	</outline>
</glyph>
<glyph name="nine" format="2">
	<advance width="560"/>
	<unicode hex="0039"/>
	<outline>
		<contour>
			<point x="55" y="434" type="curve" smooth="yes"/>
			<point x="55" y="297"/>
			<point x="127" y="215"/>
			<point x="249" y="215" type="curve" smooth="yes"/>
			<point x="324" y="215"/>
			<point x="384" y="260"/>
			<point x="405" y="310" type="curve"/>
			<point x="412" y="310" type="line"/>
			<point x="412" y="150"/>
			<point x="362" y="72"/>
			<point x="255" y="72" type="curve" smooth="yes"/>
			<point x="199" y="72"/>
			<point x="151" y="104"/>
			<point x="128" y="155" type="curve"/>
			<point x="60" y="104" type="line"/>
			<point x="97" y="31"/>
			<point x="169" y="-11"/>
			<point x="257" y="-11" type="curve" smooth="yes"/>
			<point x="420" y="-11"/>
			<point x="505" y="110"/>
			<point x="505" y="341" type="curve" smooth="yes"/>
			<point x="505" y="542"/>
			<point x="418" y="660"/>
			<point x="271" y="660" type="curve" smooth="yes"/>
			<point x="139" y="660"/>
			<point x="55" y="572"/>
		</contour>
		<contour>
			<point x="143" y="434" type="curve" smooth="yes"/>
			<point x="143" y="522"/>
			<point x="188" y="582"/>
			<point x="269" y="582" type="curve" smooth="yes"/>
			<point x="342" y="582"/>
			<point x="392" y="517"/>
			<point x="392" y="435" type="curve" smooth="yes"/>
			<point x="392" y="352"/>
			<point x="339" y="290"/>
			<point x="268" y="290" type="curve" smooth="yes"/>
			<point x="194" y="290"/>
			<point x="143" y="349"/>
		</contour>
	</outline>
</glyph>
<glyph name="question" format="2">
	<advance width="418"/>
	<unicode hex="003F"/>
	<outline>
		<contour>
			<point x="150" y="49" type="curve"/>
			<point x="150" y="10"/>
			<point x="174" y="-11"/>
			<point x="209" y="-11" type="curve" smooth="yes"/>
			<point x="244" y="-11"/>
			<point x="268" y="10"/>
			<point x="268" y="49" type="curve" smooth="yes"/>
			<point x="268" y="86"/>
			<point x="243" y="108"/>
			<point x="209" y="108" type="curve" smooth="yes"/>
			<point x="175" y="108"/>
			<point x="150" y="86"/>
		</contour>
		<contour>
			<point x="295" y="263" type="curve"/>
			<point x="318" y="209" type="line"/>
			<point x="300" y="180"/>
			<point x="258" y="158"/>
			<point x="224" y="158" type="curve" smooth="yes"/>
			<point x="143" y="158"/>
			<point x="89" y="206"/>
			<point x="89" y="279" type="curve" smooth="yes"/>
			<point x="89" y="423"/>
			<point x="278" y="442"/>
			<point x="278" y="527" type="curve" smooth="yes"/>
			<point x="278" y="561"/>
			<point x="248" y="587"/>
			<point x="209" y="587" type="curve" smooth="yes"/>
			<point x="177" y="587"/>
			<point x="150" y="571"/>
			<point x="90" y="516" type="curve"/>
			<point x="55" y="584" type="line"/>
			<point x="101" y="637"/>
			<point x="150" y="662"/>
			<point x="209" y="662" type="curve" smooth="yes"/>
			<point x="304" y="662"/>
			<point x="363" y="605"/>
			<point x="363" y="527" type="curve" smooth="yes"/>
			<point x="363" y="391"/>
			<point x="172" y="373"/>
			<point x="172" y="279" type="curve" smooth="yes"/>
			<point x="172" y="250"/>
			<point x="193" y="231"/>
			<point x="224" y="231" type="curve" smooth="yes"/>
			<point x="251" y="231"/>
			<point x="271" y="240"/>
		</contour>
	</outline>
</glyph>
<glyph name="at" format="2">
	<advance width="931"/>
	<unicode hex="0040"/>
	<outline>
		<contour>
			<point x="365" y="204" type="curve" smooth="yes"/>
			<point x="365" y="292"/>
			<point x="396" y="336"/>
			<point x="458" y="336" type="curve" smooth="yes"/>
			<point x="513" y="336"/>
			<point x="553" y="287"/>
			<point x="553" y="219" type="curve" smooth="yes"/>
			<point x="553" y="151" type="line" smooth="yes"/>
			<point x="553" y="102"/>
			<point x="511" y="59"/>
			<point x="463" y="59" type="curve" smooth="yes"/>
			<point x="400" y="59"/>
			<point x="365" y="110"/>
		</contour>
		<contour>
			<point x="686" y="-167" type="curve"/>
			<point x="686" y="-94" type="line"/>
			<point x="610" y="-129"/>
			<point x="549" y="-145"/>
			<point x="486" y="-145" type="curve" smooth="yes"/>
			<point x="266" y="-145"/>
			<point x="131" y="-13"/>
			<point x="131" y="201" type="curve" smooth="yes"/>
			<point x="131" y="413"/>
			<point x="268" y="547"/>
			<point x="483" y="547" type="curve" smooth="yes"/>
			<point x="677" y="547"/>
			<point x="802" y="434"/>
			<point x="802" y="258" type="curve" smooth="yes"/>
			<point x="802" y="144"/>
			<point x="747" y="54"/>
			<point x="677" y="54" type="curve" smooth="yes"/>
			<point x="643" y="54" type="line"/>
			<point x="643" y="392" type="line"/>
			<point x="571" y="392" type="line"/>
			<point x="571" y="314" type="line"/>
			<point x="558" y="314" type="line"/>
			<point x="544" y="369"/>
			<point x="500" y="403"/>
			<point x="442" y="403" type="curve" smooth="yes"/>
			<point x="342" y="403"/>
			<point x="280" y="325"/>
			<point x="280" y="200" type="curve" smooth="yes"/>
			<point x="280" y="75"/>
			<point x="344" y="-8"/>
			<point x="441" y="-8" type="curve" smooth="yes"/>
			<point x="498" y="-8"/>
			<point x="538" y="19"/>
			<point x="558" y="71" type="curve"/>
			<point x="571" y="71" type="line"/>
			<point x="571" y="24"/>
			<point x="612" y="-9"/>
			<point x="671" y="-9" type="curve" smooth="yes"/>
			<point x="792" y="-9"/>
			<point x="876" y="102"/>
			<point x="876" y="261" type="curve" smooth="yes"/>
			<point x="876" y="476"/>
			<point x="716" y="622"/>
			<point x="481" y="622" type="curve" smooth="yes"/>
			<point x="226" y="622"/>
			<point x="55" y="454"/>
			<point x="55" y="203" type="curve" smooth="yes"/>
			<point x="55" y="-52"/>
			<point x="224" y="-220"/>
			<point x="480" y="-220" type="curve" smooth="yes"/>
			<point x="563" y="-220"/>
			<point x="629" y="-203"/>
		</contour>
	</outline>
</glyph>
<glyph name="A" format="2">
	<advance width="592"/>
	<unicode hex="0041"/>
	<anchor x="295" y="637" name="top"/>
	<outline>
		<contour>
			<point x="15" y="0" type="line"/>
			<point x="111" y="0" type="line"/>
			<point x="167" y="168" type="line"/>
			<point x="418" y="168" type="line"/>
			<point x="476" y="0" type="line"/>
			<point x="577" y="0" type="line"/>
			<point x="346" y="650" type="line"/>
			<point x="243" y="650" type="line"/>
		</contour>
		<contour>
			<point x="197" y="259" type="line"/>
			<point x="283" y="517" type="line"/>
			<point x="298" y="517" type="line"/>
			<point x="387" y="259" type="line"/>
		</contour>
	</outline>
</glyph>
<glyph name="B" format="2">
	<advance width="586"/>
	<unicode hex="0042"/>
	<outline>
		<contour>
			<point x="93" y="2" type="line"/>
			<point x="314" y="2" type="line" smooth="yes"/>
			<point x="453" y="2"/>
			<point x="539" y="73"/>
			<point x="539" y="187" type="curve" smooth="yes"/>
			<point x="539" y="272"/>
			<point x="490" y="326"/>
			<point x="393" y="349" type="curve"/>
			<point x="393" y="362" type="line"/>
			<point x="465" y="383"/>
			<point x="502" y="432"/>
			<point x="502" y="494" type="curve" smooth="yes"/>
			<point x="502" y="596"/>
			<point x="426" y="652"/>
			<point x="289" y="652" type="curve" smooth="yes"/>
			<point x="93" y="652" type="line"/>
		</contour>
		<contour>
			<point x="303" y="90" type="curve" smooth="yes"/>
			<point x="187" y="90" type="line"/>
			<point x="187" y="302" type="line"/>
			<point x="298" y="302" type="line" smooth="yes"/>
			<point x="394" y="302"/>
			<point x="444" y="266"/>
			<point x="444" y="197" type="curve" smooth="yes"/>
			<point x="444" y="128"/>
			<point x="393" y="90"/>
		</contour>
		<contour>
			<point x="289" y="388" type="curve" smooth="yes"/>
			<point x="187" y="388" type="line"/>
			<point x="187" y="564" type="line"/>
			<point x="288" y="564" type="line" smooth="yes"/>
			<point x="366" y="564"/>
			<point x="407" y="535"/>
			<point x="407" y="478" type="curve" smooth="yes"/>
			<point x="407" y="420"/>
			<point x="365" y="388"/>
		</contour>
	</outline>
</glyph>
<glyph name="C" format="2">
	<advance width="581"/>
	<unicode hex="0043"/>
	<guideline x="376" y="177" angle="0"/>
	<guideline x="541" y="103" angle="90"/>
	<outline>
		<contour>
			<point x="541" y="537" type="curve"/>
			<point x="479" y="488" type="line"/>
			<point x="441" y="548"/>
			<point x="391" y="577"/>
			<point x="328" y="577" type="curve" smooth="yes"/>
			<point x="215" y="577"/>
			<point x="148" y="485"/>
			<point x="148" y="329" type="curve" smooth="yes"/>
			<point x="148" y="170"/>
			<point x="216" y="75"/>
			<point x="330" y="75" type="curve" smooth="yes"/>
			<point x="388" y="75"/>
			<point x="434" y="100"/>
			<point x="486" y="159" type="curve"/>
			<point x="541" y="103" type="line"/>
			<point x="487" y="29"/>
			<point x="414" y="-8"/>
			<point x="323" y="-8" type="curve" smooth="yes"/>
			<point x="156" y="-8"/>
			<point x="55" y="120"/>
			<point x="55" y="330" type="curve" smooth="yes"/>
			<point x="55" y="536"/>
			<point x="155" y="660"/>
			<point x="322" y="660" type="curve" smooth="yes"/>
			<point x="418" y="660"/>
			<point x="493" y="618"/>
		</contour>
	</outline>
</glyph>
<glyph name="D" format="2">
	<advance width="640"/>
	<unicode hex="0044"/>
	<outline>
		<contour>
			<point x="93" y="0" type="line"/>
			<point x="155" y="0" type="line"/>
			<point x="155" y="-1" type="line"/>
			<point x="285" y="-1" type="line" smooth="yes"/>
			<point x="485" y="-1"/>
			<point x="585" y="108"/>
			<point x="585" y="327" type="curve" smooth="yes"/>
			<point x="585" y="544"/>
			<point x="488" y="650"/>
			<point x="288" y="650" type="curve" smooth="yes"/>
			<point x="93" y="650" type="line"/>
		</contour>
		<contour>
			<point x="285" y="82" type="curve" smooth="yes"/>
			<point x="188" y="82" type="line"/>
			<point x="188" y="569" type="line"/>
			<point x="285" y="569" type="line" smooth="yes"/>
			<point x="427" y="569"/>
			<point x="493" y="492"/>
			<point x="493" y="327" type="curve" smooth="yes"/>
			<point x="493" y="160"/>
			<point x="426" y="82"/>
		</contour>
	</outline>
</glyph>
<glyph name="E" format="2">
	<advance width="535"/>
	<unicode hex="0045"/>
	<anchor x="295" y="637" name="top"/>
	<outline>
		<contour>
			<point x="93" y="0" type="line"/>
			<point x="480" y="0" type="line"/>
			<point x="480" y="88" type="line"/>
			<point x="188" y="88" type="line"/>
			<point x="188" y="303" type="line"/>
			<point x="439" y="303" type="line"/>
			<point x="439" y="391" type="line"/>
			<point x="188" y="391" type="line"/>
			<point x="188" y="562" type="line"/>
			<point x="480" y="562" type="line"/>
			<point x="480" y="650" type="line"/>
			<point x="93" y="650" type="line"/>
		</contour>
	</outline>
</glyph>
<glyph name="F" format="2">
	<advance width="535"/>
	<unicode hex="0046"/>
	<outline>
		<contour>
			<point x="93" y="0" type="line"/>
			<point x="188" y="0" type="line"/>
			<point x="188" y="278" type="line"/>
			<point x="442" y="278" type="line"/>
			<point x="442" y="366" type="line"/>
			<point x="188" y="366" type="line"/>
			<point x="188" y="562" type="line"/>
			<point x="480" y="562" type="line"/>
			<point x="480" y="650" type="line"/>
			<point x="93" y="650" type="line"/>
		</contour>
	</outline>
</glyph>
<glyph name="G" format="2">
	<advance width="631"/>
	<unicode hex="0047"/>
	<guideline x="374" y="568" angle="0"/>
	<outline>
		<contour>
			<point x="55" y="329" type="curve" smooth="yes"/>
			<point x="55" y="120"/>
			<point x="153" y="-11"/>
			<point x="311" y="-11" type="curve" smooth="yes"/>
			<point x="386" y="-11"/>
			<point x="435" y="14"/>
			<point x="471" y="67" type="curve"/>
			<point x="483" y="67" type="line"/>
			<point x="483" y="0" type="line"/>
			<point x="558" y="0" type="line"/>
			<point x="558" y="339" type="line"/>
			<point x="289" y="339" type="line"/>
			<point x="289" y="257" type="line"/>
			<point x="470" y="257" type="line"/>
			<point x="470" y="222" type="line" smooth="yes"/>
			<point x="470" y="122"/>
			<point x="415" y="72"/>
			<point x="327" y="72" type="curve" smooth="yes"/>
			<point x="215" y="72"/>
			<point x="148" y="167"/>
			<point x="148" y="327" type="curve" smooth="yes"/>
			<point x="148" y="486"/>
			<point x="213" y="577"/>
			<point x="327" y="577" type="curve" smooth="yes"/>
			<point x="395" y="577"/>
			<point x="443" y="549"/>
			<point x="481" y="488" type="curve"/>
			<point x="542" y="540" type="line"/>
			<point x="494" y="620"/>
			<point x="420" y="660"/>
			<point x="320" y="660" type="curve" smooth="yes"/>
			<point x="153" y="660"/>
			<point x="55" y="538"/>
		</contour>
	</outline>
</glyph>
<glyph name="H" format="2">
	<advance width="684"/>
	<unicode hex="0048"/>
	<outline>
		<contour>
			<point x="93" y="0" type="line"/>
			<point x="188" y="0" type="line"/>
			<point x="188" y="306" type="line"/>
			<point x="496" y="306" type="line"/>
			<point x="496" y="0" type="line"/>
			<point x="591" y="0" type="line"/>
			<point x="591" y="650" type="line"/>
			<point x="496" y="650" type="line"/>
			<point x="496" y="399" type="line"/>
			<point x="188" y="399" type="line"/>
			<point x="188" y="650" type="line"/>
			<point x="93" y="650" type="line"/>
		</contour>
	</outline>
</glyph>
<glyph name="I" format="2">
	<advance width="281"/>
	<unicode hex="0049"/>
	<anchor x="141" y="637" name="top"/>
	<outline>
		<contour>
			<point x="93" y="650" type="line"/>
			<point x="93" y="0" type="line"/>
			<point x="188" y="0" type="line"/>
			<point x="188" y="650" type="line"/>
		</contour>
	</outline>
</glyph>
<glyph name="J" format="2">
	<advance width="415"/>
	<unicode hex="004A"/>
	<outline>
		<contour>
			<point x="29" y="114" type="curve"/>
			<point x="-18" y="39" type="line"/>
			<point x="17" y="8"/>
			<point x="72" y="-11"/>
			<point x="125" y="-11" type="curve" smooth="yes"/>
			<point x="246" y="-11"/>
			<point x="322" y="82"/>
			<point x="322" y="232" type="curve" smooth="yes"/>
			<point x="322" y="650" type="line"/>
			<point x="227" y="650" type="line"/>
			<point x="227" y="222" type="line" smooth="yes"/>
			<point x="227" y="128"/>
			<point x="192" y="77"/>
			<point x="125" y="77" type="curve" smooth="yes"/>
			<point x="99" y="77"/>
			<point x="66" y="86"/>
		</contour>
	</outline>
</glyph>
<glyph name="K" format="2">
	<advance width="573"/>
	<unicode hex="004B"/>
	<outline>
		<contour>
			<point x="93" y="0" type="line"/>
			<point x="188" y="0" type="line"/>
			<point x="188" y="265" type="line"/>
			<point x="276" y="265" type="line"/>
			<point x="400" y="71" type="line" smooth="yes"/>
			<point x="440" y="8"/>
			<point x="468" y="-11"/>
			<point x="520" y="-11" type="curve" smooth="yes"/>
			<point x="542" y="-11" type="line"/>
			<point x="542" y="76" type="line"/>
			<point x="510" y="76"/>
			<point x="497" y="83"/>
			<point x="479" y="111" type="curve" smooth="yes"/>
			<point x="340" y="325" type="line"/>
			<point x="543" y="651" type="line"/>
			<point x="444" y="651" type="line"/>
			<point x="256" y="351" type="line"/>
			<point x="188" y="351" type="line"/>
			<point x="188" y="650" type="line"/>
			<point x="93" y="650" type="line"/>
		</contour>
	</outline>
</glyph>
<glyph name="L" format="2">
	<advance width="484"/>
	<unicode hex="004C"/>
	<outline>
		<contour>
			<point x="93" y="0" type="line"/>
			<point x="464" y="0" type="line"/>
			<point x="464" y="88" type="line"/>
			<point x="188" y="88" type="line"/>
			<point x="188" y="650" type="line"/>
			<point x="93" y="650" type="line"/>
		</contour>
	</outline>
</glyph>
<glyph name="M" format="2">
	<advance width="802"/>
	<unicode hex="004D"/>
	<outline>
		<contour>
			<point x="93" y="0" type="line"/>
			<point x="185" y="0" type="line"/>
			<point x="185" y="537" type="line"/>
			<point x="193" y="537" type="line"/>
			<point x="345" y="0" type="line"/>
			<point x="459" y="0" type="line"/>
			<point x="608" y="537" type="line"/>
			<point x="615" y="537" type="line"/>
			<point x="615" y="0" type="line"/>
			<point x="709" y="0" type="line"/>
			<point x="709" y="650" type="line"/>
			<point x="553" y="650" type="line"/>
			<point x="409" y="116" type="line"/>
			<point x="397" y="116" type="line"/>
			<point x="258" y="650" type="line"/>
			<point x="93" y="650" type="line"/>
		</contour>
	</outline>
</glyph>
<glyph name="N" format="2">
	<advance width="663"/>
	<unicode hex="004E"/>
	<anchor x="332" y="637" name="top"/>
	<outline>
		<contour>
			<point x="93" y="0" type="line"/>
			<point x="187" y="0" type="line"/>
			<point x="187" y="510" type="line"/>
			<point x="196" y="510" type="line"/>
			<point x="431" y="0" type="line"/>
			<point x="570" y="0" type="line"/>
			<point x="570" y="650" type="line"/>
			<point x="476" y="650" type="line"/>
			<point x="476" y="126" type="line"/>
			<point x="472" y="126" type="line"/>
			<point x="230" y="650" type="line"/>
			<point x="93" y="650" type="line"/>
		</contour>
	</outline>
</glyph>
<glyph name="O" format="2">
	<advance width="648"/>
	<unicode hex="004F"/>
	<anchor x="326" y="637" name="top"/>
	<outline>
		<contour>
			<point x="150" y="327" type="curve" smooth="yes"/>
			<point x="150" y="486"/>
			<point x="215" y="579"/>
			<point x="326" y="579" type="curve" smooth="yes"/>
			<point x="436" y="579"/>
			<point x="498" y="488"/>
			<point x="498" y="327" type="curve" smooth="yes"/>
			<point x="498" y="165"/>
			<point x="435" y="72"/>
			<point x="326" y="72" type="curve" smooth="yes"/>
			<point x="216" y="72"/>
			<point x="150" y="167"/>
		</contour>
		<contour>
			<point x="55" y="327" type="curve" smooth="yes"/>
			<point x="55" y="110"/>
			<point x="152" y="-11"/>
			<point x="326" y="-11" type="curve" smooth="yes"/>
			<point x="497" y="-11"/>
			<point x="593" y="110"/>
			<point x="593" y="327" type="curve" smooth="yes"/>
			<point x="593" y="542"/>
			<point x="498" y="662"/>
			<point x="326" y="662" type="curve" smooth="yes"/>
			<point x="152" y="662"/>
			<point x="55" y="543"/>
		</contour>
	</outline>
</glyph>
<glyph name="P" format="2">
	<advance width="558"/>
	<unicode hex="0050"/>
	<outline>
		<contour>
			<point x="93" y="0" type="line"/>
			<point x="188" y="0" type="line"/>
			<point x="188" y="231" type="line"/>
			<point x="265" y="231" type="line" smooth="yes"/>
			<point x="433" y="231"/>
			<point x="518" y="302"/>
			<point x="518" y="443" type="curve" smooth="yes"/>
			<point x="518" y="584"/>
			<point x="437" y="650"/>
			<point x="265" y="650" type="curve" smooth="yes"/>
			<point x="93" y="650" type="line"/>
		</contour>
		<contour>
			<point x="275" y="319" type="curve" smooth="yes"/>
			<point x="188" y="319" type="line"/>
			<point x="188" y="562" type="line"/>
			<point x="275" y="562" type="line" smooth="yes"/>
			<point x="380" y="562"/>
			<point x="426" y="525"/>
			<point x="426" y="442" type="curve" smooth="yes"/>
			<point x="426" y="361"/>
			<point x="374" y="319"/>
		</contour>
	</outline>
</glyph>
<glyph name="Q" format="2">
	<advance width="650"/>
	<unicode hex="0051"/>
	<outline>
		<contour>
			<point x="55" y="327" type="curve" smooth="yes"/>
			<point x="55" y="144"/>
			<point x="155" y="16"/>
			<point x="298" y="16" type="curve"/>
			<point x="298" y="3" type="line"/>
			<point x="136" y="-73" type="line"/>
			<point x="136" y="-156" type="line"/>
			<point x="595" y="-156" type="line"/>
			<point x="595" y="-73" type="line"/>
			<point x="288" y="-73" type="line"/>
			<point x="288" y="-61" type="line"/>
			<point x="469" y="-13"/>
			<point x="591" y="146"/>
			<point x="591" y="327" type="curve" smooth="yes"/>
			<point x="591" y="545"/>
			<point x="498" y="662"/>
			<point x="326" y="662" type="curve" smooth="yes"/>
			<point x="152" y="662"/>
			<point x="55" y="543"/>
		</contour>
		<contour>
			<point x="150" y="327" type="curve" smooth="yes"/>
			<point x="150" y="487"/>
			<point x="216" y="579"/>
			<point x="329" y="579" type="curve" smooth="yes"/>
			<point x="442" y="579"/>
			<point x="503" y="490"/>
			<point x="503" y="327" type="curve" smooth="yes"/>
			<point x="503" y="169"/>
			<point x="438" y="75"/>
			<point x="329" y="75" type="curve" smooth="yes"/>
			<point x="216" y="75"/>
			<point x="150" y="167"/>
		</contour>
	</outline>
</glyph>
<glyph name="R" format="2">
	<advance width="570"/>
	<unicode hex="0052"/>
	<outline>
		<contour>
			<point x="93" y="0" type="line"/>
			<point x="188" y="0" type="line"/>
			<point x="188" y="244" type="line"/>
			<point x="298" y="244" type="line"/>
			<point x="397" y="74" type="line"/>
			<point x="434" y="10"/>
			<point x="465" y="-11"/>
			<point x="521" y="-11" type="curve" smooth="yes"/>
			<point x="543" y="-11" type="line"/>
			<point x="543" y="78" type="line"/>
			<point x="510" y="78"/>
			<point x="495" y="86"/>
			<point x="479" y="114" type="curve"/>
			<point x="395" y="259" type="line"/>
			<point x="479" y="288"/>
			<point x="527" y="357"/>
			<point x="527" y="448" type="curve" smooth="yes"/>
			<point x="527" y="573"/>
			<point x="439" y="650"/>
			<point x="294" y="650" type="curve" smooth="yes"/>
			<point x="93" y="650" type="line"/>
		</contour>
		<contour>
			<point x="267" y="330" type="curve" smooth="yes"/>
			<point x="188" y="330" type="line"/>
			<point x="188" y="562" type="line"/>
			<point x="295" y="562" type="line" smooth="yes"/>
			<point x="386" y="562"/>
			<point x="434" y="522"/>
			<point x="434" y="446" type="curve" smooth="yes"/>
			<point x="434" y="368"/>
			<point x="379" y="330"/>
		</contour>
	</outline>
</glyph>
<glyph name="S" format="2">
	<advance width="538"/>
	<unicode hex="0053"/>
	<guideline x="-36" y="99" angle="0"/>
	<outline>
		<contour>
			<point x="40" y="128" type="curve"/>
			<point x="114" y="176" type="line"/>
			<point x="144" y="110"/>
			<point x="201" y="70"/>
			<point x="266" y="70" type="curve" smooth="yes"/>
			<point x="340" y="70"/>
			<point x="393" y="113"/>
			<point x="393" y="174" type="curve" smooth="yes"/>
			<point x="393" y="325"/>
			<point x="67" y="257"/>
			<point x="67" y="477" type="curve" smooth="yes"/>
			<point x="67" y="588"/>
			<point x="148" y="660"/>
			<point x="273" y="660" type="curve" smooth="yes"/>
			<point x="366" y="660"/>
			<point x="439" y="621"/>
			<point x="473" y="552" type="curve"/>
			<point x="402" y="502" type="line"/>
			<point x="370" y="553"/>
			<point x="327" y="577"/>
			<point x="268" y="577" type="curve" smooth="yes"/>
			<point x="203" y="577"/>
			<point x="162" y="544"/>
			<point x="162" y="491" type="curve" smooth="yes"/>
			<point x="162" y="341"/>
			<point x="488" y="410"/>
			<point x="488" y="183" type="curve" smooth="yes"/>
			<point x="488" y="65"/>
			<point x="400" y="-13"/>
			<point x="268" y="-13" type="curve" smooth="yes"/>
			<point x="163" y="-13"/>
			<point x="82" y="37"/>
		</contour>
	</outline>
</glyph>
<glyph name="T" format="2">
	<advance width="503"/>
	<unicode hex="0054"/>
	<outline>
		<contour>
			<point x="17" y="562" type="line"/>
			<point x="204" y="562" type="line"/>
			<point x="204" y="0" type="line"/>
			<point x="299" y="0" type="line"/>
			<point x="299" y="562" type="line"/>
			<point x="486" y="562" type="line"/>
			<point x="486" y="650" type="line"/>
			<point x="17" y="650" type="line"/>
		</contour>
	</outline>
</glyph>
<glyph name="U" format="2">
	<advance width="670"/>
	<unicode hex="0055"/>
	<anchor x="335" y="637" name="top"/>
	<outline>
		<contour>
			<point x="93" y="252" type="curve" smooth="yes"/>
			<point x="93" y="650" type="line"/>
			<point x="190" y="650" type="line"/>
			<point x="190" y="252" type="line" smooth="yes"/>
			<point x="190" y="142"/>
			<point x="245" y="75"/>
			<point x="337" y="75" type="curve" smooth="yes"/>
			<point x="429" y="75"/>
			<point x="480" y="138"/>
			<point x="480" y="252" type="curve" smooth="yes"/>
			<point x="480" y="650" type="line"/>
			<point x="577" y="650" type="line"/>
			<point x="577" y="252" type="line" smooth="yes"/>
			<point x="577" y="87"/>
			<point x="488" y="-11"/>
			<point x="337" y="-11" type="curve" smooth="yes"/>
			<point x="184" y="-11"/>
			<point x="93" y="88"/>
		</contour>
	</outline>
</glyph>
<glyph name="V" format="2">
	<advance width="592"/>
	<unicode hex="0056"/>
	<outline>
		<contour>
			<point x="15" y="649" type="line"/>
			<point x="246" y="-1" type="line"/>
			<point x="349" y="-1" type="line"/>
			<point x="577" y="649" type="line"/>
			<point x="481" y="649" type="line"/>
			<point x="309" y="132" type="line"/>
			<point x="294" y="132" type="line"/>
			<point x="116" y="649" type="line"/>
		</contour>
	</outline>
</glyph>
<glyph name="W" format="2">
	<advance width="812"/>
	<unicode hex="0057"/>
	<outline>
		<contour>
			<point x="20" y="649" type="line"/>
			<point x="166" y="-1" type="line"/>
			<point x="287" y="-1" type="line"/>
			<point x="403" y="502" type="line"/>
			<point x="409" y="502" type="line"/>
			<point x="524" y="-1" type="line"/>
			<point x="645" y="-1" type="line"/>
			<point x="792" y="649" type="line"/>
			<point x="697" y="649" type="line"/>
			<point x="593" y="132" type="line"/>
			<point x="582" y="132" type="line"/>
			<point x="460" y="649" type="line"/>
			<point x="356" y="649" type="line"/>
			<point x="235" y="132" type="line"/>
			<point x="224" y="132" type="line"/>
			<point x="119" y="649" type="line"/>
		</contour>
	</outline>
</glyph>
<glyph name="X" format="2">
	<advance width="578"/>
	<unicode hex="0058"/>
	<outline>
		<contour>
			<point x="10" y="0" type="line"/>
			<point x="117" y="0" type="line"/>
			<point x="285" y="255" type="line"/>
			<point x="451" y="0" type="line"/>
			<point x="568" y="0" type="line"/>
			<point x="338" y="338" type="line"/>
			<point x="544" y="649" type="line"/>
			<point x="434" y="649" type="line"/>
			<point x="287" y="421" type="line"/>
			<point x="137" y="649" type="line"/>
			<point x="30" y="649" type="line"/>
			<point x="235" y="340" type="line"/>
		</contour>
	</outline>
</glyph>
<glyph name="Y" format="2">
	<advance width="562"/>
	<unicode hex="0059"/>
	<outline>
		<contour>
			<point x="20" y="650" type="line"/>
			<point x="233" y="189" type="line"/>
			<point x="233" y="0" type="line"/>
			<point x="328" y="0" type="line"/>
			<point x="328" y="189" type="line"/>
			<point x="542" y="650" type="line"/>
			<point x="444" y="650" type="line"/>
			<point x="287" y="291" type="line"/>
			<point x="275" y="291" type="line"/>
			<point x="118" y="650" type="line"/>
		</contour>
	</outline>
</glyph>
<glyph name="Z" format="2">
	<advance width="539"/>
	<unicode hex="005A"/>
	<outline>
		<contour>
			<point x="20" y="0" type="line"/>
			<point x="519" y="0" type="line"/>
			<point x="519" y="88" type="line"/>
			<point x="135" y="88" type="line"/>
			<point x="135" y="98" type="line"/>
			<point x="508" y="554" type="line"/>
			<point x="508" y="650" type="line"/>
			<point x="31" y="650" type="line"/>
			<point x="31" y="562" type="line"/>
			<point x="387" y="562" type="line"/>
			<point x="387" y="548" type="line"/>
			<point x="20" y="95" type="line"/>
		</contour>
	</outline>
</glyph>
<glyph name="a" format="2">
	<advance width="485"/>
	<unicode hex="0061"/>
	<guideline x="208" y="69" angle="0"/>
	<anchor x="243" y="481" name="top"/>
	<outline>
		<contour>
			<point x="60" y="444" type="curve"/>
			<point x="90" y="366" type="line"/>
			<point x="152" y="400"/>
			<point x="186" y="412"/>
			<point x="222" y="412" type="curve" smooth="yes"/>
			<point x="285" y="412"/>
			<point x="319" y="379"/>
			<point x="319" y="319" type="curve" smooth="yes"/>
			<point x="319" y="260" type="line"/>
			<point x="211" y="260" type="line" smooth="yes"/>
			<point x="98" y="260"/>
			<point x="45" y="218"/>
			<point x="45" y="127" type="curve" smooth="yes"/>
			<point x="45" y="49"/>
			<point x="110" y="-10"/>
			<point x="194" y="-10" type="curve" smooth="yes"/>
			<point x="257" y="-10"/>
			<point x="307" y="18"/>
			<point x="344" y="74" type="curve"/>
			<point x="353" y="74" type="line"/>
			<point x="355" y="24"/>
			<point x="379" y="0"/>
			<point x="430" y="0" type="curve" smooth="yes"/>
			<point x="450" y="0" type="line"/>
			<point x="450" y="84" type="line"/>
			<point x="418" y="84"/>
			<point x="410" y="91"/>
			<point x="410" y="118" type="curve" smooth="yes"/>
			<point x="410" y="316" type="line" smooth="yes"/>
			<point x="410" y="433"/>
			<point x="351" y="492"/>
			<point x="233" y="492" type="curve" smooth="yes"/>
			<point x="176" y="492"/>
			<point x="120" y="476"/>
		</contour>
		<contour>
			<point x="129" y="136" type="curve" smooth="yes"/>
			<point x="129" y="175"/>
			<point x="155" y="191"/>
			<point x="218" y="191" type="curve" smooth="yes"/>
			<point x="319" y="191" type="line"/>
			<point x="319" y="149" type="line" smooth="yes"/>
			<point x="319" y="104"/>
			<point x="272" y="72"/>
			<point x="208" y="72" type="curve" smooth="yes"/>
			<point x="158" y="72"/>
			<point x="129" y="96"/>
		</contour>
	</outline>
</glyph>
<glyph name="b" format="2">
	<advance width="531"/>
	<unicode hex="0062"/>
	<outline>
		<contour>
			<point x="77" y="0" type="line"/>
			<point x="158" y="0" type="line"/>
			<point x="158" y="74" type="line"/>
			<point x="168" y="74" type="line"/>
			<point x="193" y="20"/>
			<point x="239" y="-11"/>
			<point x="299" y="-11" type="curve" smooth="yes"/>
			<point x="415" y="-11"/>
			<point x="486" y="86"/>
			<point x="486" y="245" type="curve" smooth="yes"/>
			<point x="486" y="398"/>
			<point x="417" y="492"/>
			<point x="305" y="492" type="curve" smooth="yes"/>
			<point x="236" y="492"/>
			<point x="179" y="445"/>
			<point x="168" y="383" type="curve"/>
			<point x="158" y="383" type="line"/>
			<point x="158" y="671" type="line"/>
			<point x="77" y="671" type="line"/>
		</contour>
		<contour>
			<point x="172" y="182" type="curve" smooth="yes"/>
			<point x="172" y="267" type="line" smooth="yes"/>
			<point x="172" y="350"/>
			<point x="221" y="409"/>
			<point x="290" y="409" type="curve" smooth="yes"/>
			<point x="361" y="409"/>
			<point x="397" y="353"/>
			<point x="397" y="242" type="curve" smooth="yes"/>
			<point x="397" y="132"/>
			<point x="354" y="72"/>
			<point x="276" y="72" type="curve" smooth="yes"/>
			<point x="223" y="72"/>
			<point x="172" y="126"/>
		</contour>
	</outline>
</glyph>
<glyph name="c" format="2">
	<advance width="453"/>
	<unicode hex="0063"/>
	<outline>
		<contour>
			<point x="45" y="239" type="curve" smooth="yes"/>
			<point x="45" y="397"/>
			<point x="129" y="492"/>
			<point x="271" y="492" type="curve" smooth="yes"/>
			<point x="326" y="492"/>
			<point x="379" y="474"/>
			<point x="424" y="439" type="curve"/>
			<point x="386" y="369" type="line"/>
			<point x="353" y="395"/>
			<point x="309" y="412"/>
			<point x="273" y="412" type="curve" smooth="yes"/>
			<point x="187" y="412"/>
			<point x="134" y="350"/>
			<point x="134" y="249" type="curve" smooth="yes"/>
			<point x="134" y="135"/>
			<point x="187" y="72"/>
			<point x="285" y="72" type="curve" smooth="yes"/>
			<point x="323" y="72"/>
			<point x="364" y="83"/>
			<point x="395" y="102" type="curve"/>
			<point x="425" y="27" type="line"/>
			<point x="390" y="5"/>
			<point x="328" y="-11"/>
			<point x="276" y="-11" type="curve" smooth="yes"/>
			<point x="139" y="-11"/>
			<point x="45" y="91"/>
		</contour>
	</outline>
</glyph>
<glyph name="d" format="2">
	<advance width="529"/>
	<unicode hex="0064"/>
	<outline>
		<contour>
			<point x="45" y="244" type="curve" smooth="yes"/>
			<point x="45" y="88"/>
			<point x="118" y="-11"/>
			<point x="232" y="-11" type="curve" smooth="yes"/>
			<point x="294" y="-11"/>
			<point x="346" y="21"/>
			<point x="367" y="74" type="curve"/>
			<point x="373" y="74" type="line"/>
			<point x="375" y="27"/>
			<point x="406" y="0"/>
			<point x="460" y="0" type="curve" smooth="yes"/>
			<point x="494" y="0" type="line"/>
			<point x="494" y="84" type="line"/>
			<point x="462" y="84"/>
			<point x="454" y="91"/>
			<point x="454" y="118" type="curve" smooth="yes"/>
			<point x="454" y="671" type="line"/>
			<point x="373" y="671" type="line"/>
			<point x="373" y="383" type="line"/>
			<point x="363" y="383" type="line"/>
			<point x="356" y="448"/>
			<point x="302" y="492"/>
			<point x="227" y="492" type="curve" smooth="yes"/>
			<point x="116" y="492"/>
			<point x="45" y="396"/>
		</contour>
		<contour>
			<point x="134" y="247" type="curve" smooth="yes"/>
			<point x="134" y="352"/>
			<point x="172" y="409"/>
			<point x="241" y="409" type="curve" smooth="yes"/>
			<point x="311" y="409"/>
			<point x="359" y="351"/>
			<point x="359" y="267" type="curve" smooth="yes"/>
			<point x="359" y="192" type="line" smooth="yes"/>
			<point x="359" y="122"/>
			<point x="313" y="72"/>
			<point x="249" y="72" type="curve" smooth="yes"/>
			<point x="176" y="72"/>
			<point x="134" y="135"/>
		</contour>
	</outline>
</glyph>
<glyph name="e" format="2">
	<advance width="490"/>
	<unicode hex="0065"/>
	<anchor x="257" y="481" name="top"/>
	<outline>
		<contour>
			<point x="45" y="239" type="curve" smooth="yes"/>
			<point x="45" y="392"/>
			<point x="129" y="492"/>
			<point x="257" y="492" type="curve" smooth="yes"/>
			<point x="372" y="492"/>
			<point x="445" y="411"/>
			<point x="445" y="284" type="curve" smooth="yes"/>
			<point x="445" y="261"/>
			<point x="443" y="242"/>
			<point x="439" y="229" type="curve"/>
			<point x="134" y="229" type="line"/>
			<point x="140" y="128"/>
			<point x="189" y="72"/>
			<point x="272" y="72" type="curve" smooth="yes"/>
			<point x="321" y="72"/>
			<point x="361" y="83"/>
			<point x="397" y="105" type="curve"/>
			<point x="427" y="27" type="line"/>
			<point x="379" y="2"/>
			<point x="322" y="-11"/>
			<point x="263" y="-11" type="curve" smooth="yes"/>
			<point x="133" y="-11"/>
			<point x="45" y="90"/>
		</contour>
		<contour>
			<point x="138" y="291" type="curve"/>
			<point x="359" y="291" type="line"/>
			<point x="359" y="302"/>
			<point x="358" y="312"/>
			<point x="356" y="322" type="curve" smooth="yes"/>
			<point x="346" y="377"/>
			<point x="314" y="406"/>
			<point x="259" y="406" type="curve" smooth="yes"/>
			<point x="196" y="406"/>
			<point x="149" y="361"/>
		</contour>
	</outline>
</glyph>
<glyph name="f" format="2">
	<advance width="333"/>
	<unicode hex="0066"/>
	<outline>
		<contour>
			<point x="45" y="415" type="line"/>
			<point x="101" y="415" type="line"/>
			<point x="101" y="0" type="line"/>
			<point x="188" y="0" type="line"/>
			<point x="188" y="415" type="line"/>
			<point x="283" y="415" type="line"/>
			<point x="283" y="481" type="line"/>
			<point x="188" y="481" type="line"/>
			<point x="188" y="526" type="line" smooth="yes"/>
			<point x="188" y="570"/>
			<point x="207" y="593"/>
			<point x="244" y="593" type="curve" smooth="yes"/>
			<point x="258" y="593"/>
			<point x="271" y="591"/>
			<point x="283" y="586" type="curve"/>
			<point x="283" y="662" type="line"/>
			<point x="267" y="671"/>
			<point x="252" y="674"/>
			<point x="221" y="674" type="curve" smooth="yes"/>
			<point x="146" y="674"/>
			<point x="101" y="622"/>
			<point x="101" y="535" type="curve" smooth="yes"/>
			<point x="101" y="481" type="line"/>
			<point x="45" y="481" type="line"/>
		</contour>
	</outline>
</glyph>
<glyph name="g" format="2">
	<advance width="526"/>
	<unicode hex="0067"/>
	<guideline x="222" y="-161" angle="0"/>
	<outline>
		<contour>
			<point x="45" y="250" type="curve" smooth="yes"/>
			<point x="45" y="102"/>
			<point x="117" y="5"/>
			<point x="228" y="5" type="curve" smooth="yes"/>
			<point x="290" y="5"/>
			<point x="338" y="35"/>
			<point x="361" y="87" type="curve"/>
			<point x="371" y="87" type="line"/>
			<point x="371" y="58" type="line" smooth="yes"/>
			<point x="371" y="-36"/>
			<point x="323" y="-80"/>
			<point x="222" y="-80" type="curve" smooth="yes"/>
			<point x="185" y="-80"/>
			<point x="147" y="-68"/>
			<point x="83" y="-38" type="curve"/>
			<point x="53" y="-114" type="line"/>
			<point x="101" y="-142"/>
			<point x="170" y="-161"/>
			<point x="222" y="-161" type="curve" smooth="yes"/>
			<point x="373" y="-161"/>
			<point x="454" y="-86"/>
			<point x="454" y="56" type="curve" smooth="yes"/>
			<point x="454" y="481" type="line"/>
			<point x="373" y="481" type="line"/>
			<point x="373" y="391" type="line"/>
			<point x="363" y="391" type="line"/>
			<point x="349" y="453"/>
			<point x="298" y="492"/>
			<point x="227" y="492" type="curve" smooth="yes"/>
			<point x="116" y="492"/>
			<point x="45" y="397"/>
		</contour>
		<contour>
			<point x="134" y="243" type="curve" smooth="yes"/>
			<point x="134" y="349"/>
			<point x="174" y="409"/>
			<point x="244" y="409" type="curve" smooth="yes"/>
			<point x="304" y="409"/>
			<point x="347" y="365"/>
			<point x="359" y="289" type="curve"/>
			<point x="359" y="198" type="line"/>
			<point x="359" y="134"/>
			<point x="305" y="81"/>
			<point x="241" y="81" type="curve" smooth="yes"/>
			<point x="173" y="81"/>
			<point x="134" y="140"/>
		</contour>
	</outline>
</glyph>
<glyph name="h" format="2">
	<advance width="531"/>
	<unicode hex="0068"/>
	<guideline x="168" y="402" angle="90"/>
	<guideline x="168" y="383" angle="180"/>
	<anchor x="268" y="481" name="top"/>
	<outline>
		<contour>
			<point x="77" y="0" type="line"/>
			<point x="168" y="0" type="line"/>
			<point x="168" y="280" type="line" smooth="yes"/>
			<point x="168" y="347"/>
			<point x="228" y="412"/>
			<point x="290" y="412" type="curve" smooth="yes"/>
			<point x="341" y="412"/>
			<point x="368" y="379"/>
			<point x="368" y="318" type="curve" smooth="yes"/>
			<point x="368" y="0" type="line"/>
			<point x="459" y="0" type="line"/>
			<point x="459" y="326" type="line" smooth="yes"/>
			<point x="459" y="436"/>
			<point x="409" y="492"/>
			<point x="311" y="492" type="curve" smooth="yes"/>
			<point x="243" y="492"/>
			<point x="184" y="448"/>
			<point x="168" y="390" type="curve"/>
			<point x="158" y="391" type="line"/>
			<point x="158" y="671" type="line"/>
			<point x="77" y="671" type="line"/>
		</contour>
	</outline>
</glyph>
<glyph name="i" format="2">
	<advance width="242"/>
	<unicode hex="0069"/>
	<outline>
		<contour>
			<point x="76" y="481" type="line"/>
			<point x="76" y="0" type="line"/>
			<point x="167" y="0" type="line"/>
			<point x="167" y="481" type="line"/>
		</contour>
		<contour>
			<point x="62" y="626" type="curve"/>
			<point x="62" y="587"/>
			<point x="86" y="566"/>
			<point x="121" y="566" type="curve" smooth="yes"/>
			<point x="156" y="566"/>
			<point x="180" y="587"/>
			<point x="180" y="626" type="curve" smooth="yes"/>
			<point x="180" y="663"/>
			<point x="155" y="685"/>
			<point x="121" y="685" type="curve" smooth="yes"/>
			<point x="87" y="685"/>
			<point x="62" y="663"/>
		</contour>
	</outline>
</glyph>
<glyph name="j" format="2">
	<advance width="266"/>
	<unicode hex="006A"/>
	<outline>
		<contour>
			<point x="191" y="48" type="curve"/>
			<point x="191" y="481" type="line"/>
			<point x="100" y="481" type="line"/>
			<point x="100" y="48" type="line" smooth="yes"/>
			<point x="100" y="-43"/>
			<point x="74" y="-76"/>
			<point x="5" y="-76" type="curve"/>
			<point x="5" y="-157" type="line"/>
			<point x="119" y="-157"/>
			<point x="191" y="-78"/>
		</contour>
		<contour>
			<point x="85" y="626" type="curve"/>
			<point x="85" y="587"/>
			<point x="109" y="566"/>
			<point x="144" y="566" type="curve" smooth="yes"/>
			<point x="179" y="566"/>
			<point x="203" y="587"/>
			<point x="203" y="626" type="curve" smooth="yes"/>
			<point x="203" y="663"/>
			<point x="178" y="685"/>
			<point x="144" y="685" type="curve" smooth="yes"/>
			<point x="110" y="685"/>
			<point x="85" y="663"/>
		</contour>
	</outline>
</glyph>
<glyph name="k" format="2">
	<advance width="464"/>
	<unicode hex="006B"/>
	<outline>
		<contour>
			<point x="77" y="0" type="line"/>
			<point x="164" y="0" type="line"/>
			<point x="164" y="225" type="line"/>
			<point x="216" y="225" type="line"/>
			<point x="319" y="67" type="line"/>
			<point x="351" y="9"/>
			<point x="380" y="-11"/>
			<point x="433" y="-11" type="curve" smooth="yes"/>
			<point x="453" y="-11" type="line"/>
			<point x="453" y="71" type="line"/>
			<point x="422" y="71"/>
			<point x="411" y="77"/>
			<point x="393" y="104" type="curve" smooth="yes"/>
			<point x="279" y="278" type="line"/>
			<point x="450" y="481" type="line"/>
			<point x="345" y="481" type="line"/>
			<point x="197" y="301" type="line"/>
			<point x="164" y="301" type="line"/>
			<point x="164" y="687" type="line"/>
			<point x="77" y="687" type="line"/>
		</contour>
	</outline>
</glyph>
<glyph name="l" format="2">
	<advance width="244"/>
	<unicode hex="006C"/>
	<outline>
		<contour>
			<point x="164" y="118" type="curve" smooth="yes"/>
			<point x="164" y="671" type="line"/>
			<point x="77" y="671" type="line"/>
			<point x="77" y="99" type="line" smooth="yes"/>
			<point x="77" y="38"/>
			<point x="111" y="0"/>
			<point x="164" y="0" type="curve" smooth="yes"/>
			<point x="206" y="0" type="line"/>
			<point x="209" y="84" type="line"/>
			<point x="173" y="84"/>
			<point x="164" y="91"/>
		</contour>
	</outline>
</glyph>
<glyph name="m" format="2">
	<advance width="818"/>
	<unicode hex="006D"/>
	<outline>
		<contour>
			<point x="77" y="0" type="line"/>
			<point x="168" y="0" type="line"/>
			<point x="168" y="280" type="line" smooth="yes"/>
			<point x="168" y="346"/>
			<point x="227" y="412"/>
			<point x="287" y="412" type="curve" smooth="yes"/>
			<point x="335" y="412"/>
			<point x="362" y="379"/>
			<point x="362" y="318" type="curve" smooth="yes"/>
			<point x="362" y="0" type="line"/>
			<point x="453" y="0" type="line"/>
			<point x="453" y="276" type="line" smooth="yes"/>
			<point x="453" y="342"/>
			<point x="518" y="412"/>
			<point x="580" y="412" type="curve" smooth="yes"/>
			<point x="628" y="412"/>
			<point x="655" y="379"/>
			<point x="655" y="318" type="curve" smooth="yes"/>
			<point x="655" y="0" type="line"/>
			<point x="746" y="0" type="line"/>
			<point x="746" y="326" type="line" smooth="yes"/>
			<point x="746" y="435"/>
			<point x="697" y="492"/>
			<point x="601" y="492" type="curve" smooth="yes"/>
			<point x="541" y="492"/>
			<point x="482" y="450"/>
			<point x="460" y="391" type="curve"/>
			<point x="446" y="391" type="line"/>
			<point x="429" y="458"/>
			<point x="381" y="492"/>
			<point x="305" y="492" type="curve" smooth="yes"/>
			<point x="242" y="492"/>
			<point x="184" y="448"/>
			<point x="168" y="390" type="curve"/>
			<point x="158" y="391" type="line"/>
			<point x="158" y="481" type="line"/>
			<point x="77" y="481" type="line"/>
		</contour>
	</outline>
</glyph>
<glyph name="n" format="2">
	<advance width="531"/>
	<unicode hex="006E"/>
	<guideline x="-96" y="147" angle="0"/>
	<anchor x="268" y="481" name="top"/>
	<outline>
		<contour>
			<point x="77" y="0" type="line"/>
			<point x="168" y="0" type="line"/>
			<point x="168" y="280" type="line" smooth="yes"/>
			<point x="168" y="347"/>
			<point x="228" y="412"/>
			<point x="290" y="412" type="curve" smooth="yes"/>
			<point x="341" y="412"/>
			<point x="368" y="379"/>
			<point x="368" y="318" type="curve" smooth="yes"/>
			<point x="368" y="0" type="line"/>
			<point x="459" y="0" type="line"/>
			<point x="459" y="326" type="line" smooth="yes"/>
			<point x="459" y="436"/>
			<point x="409" y="492"/>
			<point x="311" y="492" type="curve" smooth="yes"/>
			<point x="243" y="492"/>
			<point x="184" y="448"/>
			<point x="168" y="390" type="curve"/>
			<point x="158" y="391" type="line"/>
			<point x="158" y="481" type="line"/>
			<point x="77" y="481" type="line"/>
		</contour>
	</outline>
</glyph>
<glyph name="o" format="2">
	<advance width="507"/>
	<unicode hex="006F"/>
	<anchor x="255" y="481" name="top"/>
	<outline>
		<contour>
			<point x="134" y="242" type="curve" smooth="yes"/>
			<point x="134" y="349"/>
			<point x="179" y="412"/>
			<point x="255" y="412" type="curve" smooth="yes"/>
			<point x="332" y="412"/>
			<point x="373" y="353"/>
			<point x="373" y="242" type="curve" smooth="yes"/>
			<point x="373" y="127"/>
			<point x="334" y="69"/>
			<point x="255" y="69" type="curve" smooth="yes"/>
			<point x="177" y="69"/>
			<point x="134" y="130"/>
		</contour>
		<contour>
			<point x="45" y="242" type="curve" smooth="yes"/>
			<point x="45" y="83"/>
			<point x="123" y="-11"/>
			<point x="255" y="-11" type="curve" smooth="yes"/>
			<point x="388" y="-11"/>
			<point x="462" y="79"/>
			<point x="462" y="242" type="curve" smooth="yes"/>
			<point x="462" y="398"/>
			<point x="384" y="492"/>
			<point x="255" y="492" type="curve" smooth="yes"/>
			<point x="120" y="492"/>
			<point x="45" y="403"/>
		</contour>
	</outline>
</glyph>
<glyph name="q" format="2">
	<advance width="526"/>
	<unicode hex="0071"/>
	<outline>
		<contour>
			<point x="45" y="244" type="curve" smooth="yes"/>
			<point x="45" y="88"/>
			<point x="118" y="-11"/>
			<point x="232" y="-11" type="curve" smooth="yes"/>
			<point x="294" y="-11"/>
			<point x="339" y="18"/>
			<point x="362" y="74" type="curve"/>
			<point x="373" y="74" type="line"/>
			<point x="373" y="-150" type="line"/>
			<point x="454" y="-150" type="line"/>
			<point x="454" y="481" type="line"/>
			<point x="373" y="481" type="line"/>
			<point x="373" y="383" type="line"/>
			<point x="363" y="383" type="line"/>
			<point x="356" y="448"/>
			<point x="302" y="492"/>
			<point x="227" y="492" type="curve" smooth="yes"/>
			<point x="116" y="492"/>
			<point x="45" y="396"/>
		</contour>
		<contour>
			<point x="134" y="247" type="curve" smooth="yes"/>
			<point x="134" y="352"/>
			<point x="172" y="409"/>
			<point x="241" y="409" type="curve" smooth="yes"/>
			<point x="311" y="409"/>
			<point x="359" y="351"/>
			<point x="359" y="267" type="curve" smooth="yes"/>
			<point x="359" y="192" type="line" smooth="yes"/>
			<point x="359" y="122"/>
			<point x="313" y="72"/>
			<point x="249" y="72" type="curve" smooth="yes"/>
			<point x="176" y="72"/>
			<point x="134" y="135"/>
		</contour>
	</outline>
</glyph>
<glyph name="r" format="2">
	<advance width="340"/>
	<unicode hex="0072"/>
	<guideline x="450" y="443" angle="0"/>
	<outline>
		<contour>
			<point x="77" y="0" type="line"/>
			<point x="168" y="0" type="line"/>
			<point x="168" y="212" type="line" smooth="yes"/>
			<point x="168" y="348"/>
			<point x="209" y="413"/>
			<point x="294" y="413" type="curve" smooth="yes"/>
			<point x="312" y="413"/>
			<point x="318" y="413"/>
			<point x="325" y="412" type="curve"/>
			<point x="325" y="480" type="line"/>
			<point x="312" y="488"/>
			<point x="294" y="492"/>
			<point x="272" y="492" type="curve" smooth="yes"/>
			<point x="215" y="492"/>
			<point x="177" y="454"/>
			<point x="167" y="387" type="curve"/>
			<point x="156" y="387" type="line"/>
			<point x="156" y="481" type="line"/>
			<point x="77" y="481" type="line"/>
		</contour>
	</outline>
</glyph>
<glyph name="s" format="2">
	<advance width="427"/>
	<unicode hex="0073"/>
	<guideline x="552" y="366" angle="0"/>
	<outline>
		<contour>
			<point x="35" y="36" type="curve"/>
			<point x="65" y="112" type="line"/>
			<point x="132" y="82"/>
			<point x="169" y="72"/>
			<point x="204" y="72" type="curve" smooth="yes"/>
			<point x="265" y="72"/>
			<point x="297" y="92"/>
			<point x="297" y="131" type="curve" smooth="yes"/>
			<point x="297" y="162"/>
			<point x="259" y="187"/>
			<point x="180" y="215" type="curve" smooth="yes"/>
			<point x="81" y="250"/>
			<point x="42" y="296"/>
			<point x="42" y="362" type="curve" smooth="yes"/>
			<point x="42" y="442"/>
			<point x="104" y="492"/>
			<point x="202" y="492" type="curve" smooth="yes"/>
			<point x="262" y="492"/>
			<point x="329" y="477"/>
			<point x="380" y="449" type="curve"/>
			<point x="353" y="370" type="line"/>
			<point x="308" y="396"/>
			<point x="254" y="412"/>
			<point x="212" y="412" type="curve" smooth="yes"/>
			<point x="165" y="412"/>
			<point x="137" y="394"/>
			<point x="137" y="362" type="curve" smooth="yes"/>
			<point x="137" y="329"/>
			<point x="159" y="312"/>
			<point x="241" y="282" type="curve" smooth="yes"/>
			<point x="355" y="240"/>
			<point x="392" y="203"/>
			<point x="392" y="131" type="curve" smooth="yes"/>
			<point x="392" y="45"/>
			<point x="318" y="-11"/>
			<point x="204" y="-11" type="curve" smooth="yes"/>
			<point x="142" y="-11"/>
			<point x="73" y="8"/>
		</contour>
	</outline>
</glyph>
<glyph name="u" format="2">
	<advance width="508"/>
	<unicode hex="0075"/>
	<anchor x="248" y="481" name="top"/>
	<outline>
		<contour>
			<point x="60" y="168" type="curve" smooth="yes"/>
			<point x="60" y="481" type="line"/>
			<point x="151" y="481" type="line"/>
			<point x="151" y="168" type="line" smooth="yes"/>
			<point x="151" y="104"/>
			<point x="179" y="72"/>
			<point x="234" y="72" type="curve" smooth="yes"/>
			<point x="301" y="72"/>
			<point x="342" y="110"/>
			<point x="342" y="172" type="curve" smooth="yes"/>
			<point x="342" y="481" type="line"/>
			<point x="433" y="481" type="line"/>
			<point x="433" y="118" type="line" smooth="yes"/>
			<point x="433" y="91"/>
			<point x="441" y="84"/>
			<point x="473" y="84" type="curve"/>
			<point x="473" y="0" type="line"/>
			<point x="453" y="0" type="line" smooth="yes"/>
			<point x="402" y="0"/>
			<point x="378" y="24"/>
			<point x="376" y="74" type="curve"/>
			<point x="363" y="74" type="line"/>
			<point x="324" y="16"/>
			<point x="276" y="-11"/>
			<point x="216" y="-11" type="curve" smooth="yes"/>
			<point x="117" y="-11"/>
			<point x="60" y="54"/>
		</contour>
	</outline>
</glyph>
<glyph name="v" format="2">
	<advance width="473"/>
	<unicode hex="0076"/>
	<outline>
		<contour>
			<point x="17" y="481" type="line"/>
			<point x="191" y="0" type="line"/>
			<point x="282" y="0" type="line"/>
			<point x="456" y="481" type="line"/>
			<point x="369" y="481" type="line"/>
			<point x="245" y="103" type="line"/>
			<point x="238" y="103" type="line"/>
			<point x="113" y="481" type="line"/>
		</contour>
	</outline>
</glyph>
<glyph name="w" format="2">
	<advance width="730"/>
	<unicode hex="0077"/>
	<outline>
		<contour>
			<point x="10" y="481" type="line"/>
			<point x="158" y="0" type="line"/>
			<point x="260" y="0" type="line"/>
			<point x="361" y="343" type="line"/>
			<point x="369" y="343" type="line"/>
			<point x="470" y="0" type="line"/>
			<point x="572" y="0" type="line"/>
			<point x="720" y="481" type="line"/>
			<point x="634" y="481" type="line"/>
			<point x="526" y="103" type="line"/>
			<point x="515" y="103" type="line"/>
			<point x="407" y="481" type="line"/>
			<point x="320" y="481" type="line"/>
			<point x="214" y="103" type="line"/>
			<point x="203" y="103" type="line"/>
			<point x="95" y="481" type="line"/>
		</contour>
	</outline>
</glyph>
<glyph name="x" format="2">
	<advance width="471"/>
	<unicode hex="0078"/>
	<outline>
		<contour>
			<point x="10" y="0" type="line"/>
			<point x="112" y="0" type="line"/>
			<point x="230" y="178" type="line"/>
			<point x="349" y="0" type="line"/>
			<point x="461" y="0" type="line"/>
			<point x="289" y="247" type="line"/>
			<point x="459" y="488" type="line"/>
			<point x="346" y="488" type="line"/>
			<point x="235" y="317" type="line"/>
			<point x="123" y="488" type="line"/>
			<point x="22" y="488" type="line"/>
			<point x="180" y="249" type="line"/>
		</contour>
	</outline>
</glyph>
<glyph name="y" format="2">
	<advance width="488"/>
	<unicode hex="0079"/>
	<outline>
		<contour>
			<point x="20" y="481" type="line"/>
			<point x="194" y="0" type="line"/>
			<point x="227" y="0" type="line"/>
			<point x="212" y="-41"/>
			<point x="199" y="-57"/>
			<point x="170" y="-57" type="curve" smooth="yes"/>
			<point x="80" y="-57" type="line"/>
			<point x="80" y="-138" type="line"/>
			<point x="185" y="-138" type="line" smooth="yes"/>
			<point x="259" y="-138"/>
			<point x="286" y="-70"/>
			<point x="328" y="56" type="curve" smooth="yes"/>
			<point x="468" y="481" type="line"/>
			<point x="385" y="481" type="line"/>
			<point x="253" y="76" type="line"/>
			<point x="114" y="481" type="line"/>
		</contour>
	</outline>
</glyph>
<glyph name="z" format="2">
	<advance width="445"/>
	<unicode hex="007A"/>
	<outline>
		<contour>
			<point x="35" y="0" type="line"/>
			<point x="410" y="0" type="line"/>
			<point x="410" y="83" type="line"/>
			<point x="136" y="83" type="line"/>
			<point x="136" y="90" type="line"/>
			<point x="401" y="406" type="line"/>
			<point x="401" y="488" type="line"/>
			<point x="44" y="488" type="line"/>
			<point x="44" y="405" type="line"/>
			<point x="288" y="405" type="line"/>
			<point x="288" y="397" type="line"/>
			<point x="35" y="89" type="line"/>
		</contour>
	</outline>
</glyph>
<glyph name="dieresis" format="2">
	<advance width="380"/>
	<unicode hex="00A8"/>
	<anchor x="190" y="471" name="_top"/>
	<outline>
		<contour>
			<point x="45" y="604" type="curve" smooth="yes"/>
			<point x="45" y="569"/>
			<point x="69" y="546"/>
			<point x="100" y="546" type="curve" smooth="yes"/>
			<point x="131" y="546"/>
			<point x="151" y="569"/>
			<point x="151" y="604" type="curve" smooth="yes"/>
			<point x="151" y="636"/>
			<point x="131" y="660"/>
			<point x="100" y="660" type="curve" smooth="yes"/>
			<point x="69" y="660"/>
			<point x="45" y="636"/>
		</contour>
		<contour>
			<point x="230" y="602" type="curve" smooth="yes"/>
			<point x="230" y="567"/>
			<point x="250" y="544"/>
			<point x="281" y="544" type="curve" smooth="yes"/>
			<point x="312" y="544"/>
			<point x="335" y="567"/>
			<point x="335" y="602" type="curve" smooth="yes"/>
			<point x="335" y="634"/>
			<point x="312" y="658"/>
			<point x="281" y="658" type="curve" smooth="yes"/>
			<point x="250" y="658"/>
			<point x="230" y="634"/>
		</contour>
	</outline>
</glyph>
<glyph name="guillemotleft" format="2">
	<advance width="483"/>
	<unicode hex="00AB"/>
	<outline>
		<contour>
			<point x="211" y="240" type="line"/>
			<point x="337" y="406" type="line"/>
			<point x="411" y="406" type="line"/>
			<point x="300" y="243" type="line"/>
			<point x="300" y="235" type="line"/>
			<point x="411" y="73" type="line"/>
			<point x="337" y="73" type="line"/>
		</contour>
		<contour>
			<point x="45" y="240" type="line"/>
			<point x="190" y="406" type="line"/>
			<point x="264" y="406" type="line"/>
			<point x="133" y="243" type="line"/>
			<point x="133" y="235" type="line"/>
			<point x="264" y="73" type="line"/>
			<point x="190" y="73" type="line"/>
		</contour>
	</outline>
</glyph>
<glyph name="acute" format="2">
	<advance width="288"/>
	<unicode hex="00B4"/>
	<anchor x="116" y="471" name="_top"/>
	<outline>
		<contour>
			<point x="40" y="541" type="line"/>
			<point x="123" y="541" type="line"/>
			<point x="254" y="660" type="line"/>
			<point x="144" y="660" type="line"/>
		</contour>
	</outline>
</glyph>
<glyph name="questiondown" format="2">
	<advance width="418"/>
	<unicode hex="00BF"/>
	<outline>
		<contour>
			<point x="268" y="604" type="curve"/>
			<point x="268" y="643"/>
			<point x="244" y="664"/>
			<point x="209" y="664" type="curve" smooth="yes"/>
			<point x="174" y="664"/>
			<point x="150" y="643"/>
			<point x="150" y="604" type="curve" smooth="yes"/>
			<point x="150" y="567"/>
			<point x="175" y="545"/>
			<point x="209" y="545" type="curve" smooth="yes"/>
			<point x="243" y="545"/>
			<point x="268" y="567"/>
		</contour>
		<contour>
			<point x="123" y="390" type="curve"/>
			<point x="100" y="444" type="line"/>
			<point x="118" y="473"/>
			<point x="160" y="495"/>
			<point x="194" y="495" type="curve" smooth="yes"/>
			<point x="271" y="495"/>
			<point x="329" y="450"/>
			<point x="329" y="374" type="curve" smooth="yes"/>
			<point x="329" y="230"/>
			<point x="140" y="211"/>
			<point x="140" y="126" type="curve" smooth="yes"/>
			<point x="140" y="93"/>
			<point x="169" y="66"/>
			<point x="209" y="66" type="curve" smooth="yes"/>
			<point x="248" y="66"/>
			<point x="280" y="93"/>
			<point x="328" y="137" type="curve"/>
			<point x="363" y="69" type="line"/>
			<point x="325" y="25"/>
			<point x="278" y="-9"/>
			<point x="209" y="-9" type="curve" smooth="yes"/>
			<point x="112" y="-9"/>
			<point x="55" y="45"/>
			<point x="55" y="126" type="curve" smooth="yes"/>
			<point x="55" y="262"/>
			<point x="246" y="280"/>
			<point x="246" y="374" type="curve" smooth="yes"/>
			<point x="246" y="403"/>
			<point x="225" y="422"/>
			<point x="194" y="422" type="curve" smooth="yes"/>
			<point x="162" y="422"/>
			<point x="143" y="409"/>
		</contour>
	</outline>
</glyph>
<glyph name="iacute" format="2">
	<advance width="211"/>
	<unicode hex="00ED"/>
	<anchor x="116" y="471" name="_top"/>
	<outline>
		<contour>
			<point x="77" y="481" type="line"/>
			<point x="77" y="0" type="line"/>
			<point x="168" y="0" type="line"/>
			<point x="168" y="481" type="line"/>
		</contour>
		<contour>
			<point x="40" y="541" type="line"/>
			<point x="123" y="541" type="line"/>
			<point x="254" y="660" type="line"/>
			<point x="144" y="660" type="line"/>
		</contour>
	</outline>
</glyph>
<glyph name="tilde" format="2">
	<advance width="365"/>
	<unicode hex="02DC"/>
	<anchor x="172" y="471" name="_top"/>
	<outline>
		<contour>
			<point x="29" y="541" type="curve"/>
			<point x="88" y="541" type="line"/>
			<point x="88" y="572"/>
			<point x="104" y="584"/>
			<point x="124" y="584" type="curve" smooth="yes"/>
			<point x="159" y="584"/>
			<point x="192" y="536"/>
			<point x="251" y="536" type="curve" smooth="yes"/>
			<point x="299" y="536"/>
			<point x="337" y="575"/>
			<point x="337" y="638" type="curve" smooth="yes"/>
			<point x="337" y="644"/>
			<point x="337" y="650"/>
			<point x="336" y="654" type="curve"/>
			<point x="277" y="654" type="line"/>
			<point x="277" y="619"/>
			<point x="262" y="606"/>
			<point x="241" y="606" type="curve" smooth="yes"/>
			<point x="206" y="606"/>
			<point x="173" y="654"/>
			<point x="114" y="654" type="curve" smooth="yes"/>
			<point x="67" y="654"/>
			<point x="28" y="616"/>
			<point x="28" y="557" type="curve" smooth="yes"/>
			<point x="28" y="551"/>
			<point x="28" y="545"/>
		</contour>
	</outline>
</glyph>
<glyph name="quoteleft" format="2">
	<advance width="229"/>
	<unicode hex="2018"/>
	<outline>
		<contour>
			<point x="85" y="549" type="curve"/>
			<point x="70" y="549" type="line"/>
			<point x="76" y="555"/>
			<point x="86" y="558"/>
			<point x="99" y="558" type="curve" smooth="yes"/>
			<point x="131" y="558"/>
			<point x="154" y="537"/>
			<point x="154" y="507" type="curve" smooth="yes"/>
			<point x="154" y="478"/>
			<point x="133" y="457"/>
			<point x="103" y="457" type="curve" smooth="yes"/>
			<point x="70" y="457"/>
			<point x="45" y="496"/>
			<point x="45" y="548" type="curve" smooth="yes"/>
			<point x="45" y="628"/>
			<point x="81" y="675"/>
			<point x="157" y="675" type="curve"/>
			<point x="157" y="645" type="line"/>
			<point x="107" y="638"/>
			<point x="84" y="614"/>
			<point x="84" y="569" type="curve" smooth="yes"/>
			<point x="84" y="558"/>
			<point x="84" y="553"/>
		</contour>
	</outline>
</glyph>
<glyph name="quotedblleft" format="2">
	<advance width="337"/>
	<unicode hex="201C"/>
	<outline>
		<contour>
			<point x="85" y="549" type="curve"/>
			<point x="70" y="549" type="line"/>
			<point x="76" y="555"/>
			<point x="86" y="558"/>
			<point x="99" y="558" type="curve" smooth="yes"/>
			<point x="131" y="558"/>
			<point x="154" y="537"/>
			<point x="154" y="507" type="curve" smooth="yes"/>
			<point x="154" y="478"/>
			<point x="133" y="457"/>
			<point x="103" y="457" type="curve" smooth="yes"/>
			<point x="70" y="457"/>
			<point x="45" y="496"/>
			<point x="45" y="548" type="curve" smooth="yes"/>
			<point x="45" y="628"/>
			<point x="81" y="675"/>
			<point x="157" y="675" type="curve"/>
			<point x="157" y="645" type="line"/>
			<point x="107" y="638"/>
			<point x="84" y="614"/>
			<point x="84" y="569" type="curve" smooth="yes"/>
			<point x="84" y="558"/>
			<point x="84" y="553"/>
		</contour>
		<contour>
			<point x="225" y="549" type="curve"/>
			<point x="210" y="549" type="line"/>
			<point x="216" y="555"/>
			<point x="226" y="558"/>
			<point x="239" y="558" type="curve" smooth="yes"/>
			<point x="271" y="558"/>
			<point x="294" y="537"/>
			<point x="294" y="507" type="curve" smooth="yes"/>
			<point x="294" y="479"/>
			<point x="272" y="457"/>
			<point x="243" y="457" type="curve" smooth="yes"/>
			<point x="207" y="457"/>
			<point x="184" y="492"/>
			<point x="184" y="547" type="curve" smooth="yes"/>
			<point x="184" y="627"/>
			<point x="221" y="675"/>
			<point x="297" y="675" type="curve"/>
			<point x="297" y="645" type="line"/>
			<point x="247" y="638"/>
			<point x="224" y="614"/>
			<point x="224" y="569" type="curve" smooth="yes"/>
			<point x="224" y="558"/>
			<point x="224" y="553"/>
		</contour>
	</outline>
</glyph>
<glyph name="ampersand.alt" format="2">
	<advance width="708"/>
	<outline>
		<contour>
			<point x="275" y="289" type="curve"/>
			<point x="523" y="0" type="line"/>
			<point x="627" y="0" type="line"/>
			<point x="627" y="2" type="line"/>
			<point x="343" y="330" type="line" smooth="yes"/>
			<point x="267" y="417"/>
			<point x="235" y="471"/>
			<point x="235" y="513" type="curve" smooth="yes"/>
			<point x="235" y="556"/>
			<point x="265" y="585"/>
			<point x="310" y="585" type="curve"/>
			<point x="397" y="585" type="line"/>
			<point x="399" y="643" type="line"/>
			<point x="399" y="654"/>
			<point x="371" y="660"/>
			<point x="316" y="660" type="curve"/>
			<point x="218" y="660"/>
			<point x="145" y="599"/>
			<point x="145" y="516" type="curve" smooth="yes"/>
			<point x="145" y="463"/>
			<point x="184" y="395"/>
		</contour>
		<contour>
			<point x="283" y="-11" type="curve" smooth="yes"/>
			<point x="369" y="-11"/>
			<point x="444" y="29"/>
			<point x="483" y="97" type="curve"/>
			<point x="430" y="150" type="line"/>
			<point x="397" y="99"/>
			<point x="350" y="74"/>
			<point x="287" y="74" type="curve" smooth="yes"/>
			<point x="207" y="74"/>
			<point x="159" y="115"/>
			<point x="159" y="184" type="curve" smooth="yes"/>
			<point x="159" y="240"/>
			<point x="197" y="278"/>
			<point x="299" y="324" type="curve"/>
			<point x="251" y="385" type="line"/>
			<point x="122" y="324"/>
			<point x="67" y="262"/>
			<point x="67" y="178" type="curve" smooth="yes"/>
			<point x="67" y="70"/>
			<point x="159" y="-11"/>
		</contour>
		<contour>
			<point x="435" y="153" type="curve"/>
			<point x="490" y="97" type="line"/>
			<point x="537" y="148"/>
			<point x="559" y="215"/>
			<point x="559" y="306" type="curve" smooth="yes"/>
			<point x="559" y="324" type="line"/>
			<point x="487" y="324" type="line"/>
			<point x="487" y="311" type="line" smooth="yes"/>
			<point x="487" y="239"/>
			<point x="470" y="188"/>
		</contour>
	</outline>
</glyph>
<glyph name="arrow_east.orn" format="2">
	<advance width="777"/>
	<outline>
		<contour>
			<point x="93" y="264" type="line"/>
			<point x="516" y="267" type="line"/>
			<point x="516" y="257" type="line"/>
			<point x="459" y="235"/>
			<point x="420" y="161"/>
			<point x="414" y="65" type="curve"/>
			<point x="499" y="65" type="line"/>
			<point x="519" y="173"/>
			<point x="594" y="271"/>
			<point x="684" y="305" type="curve"/>
			<point x="684" y="320" type="line"/>
			<point x="592" y="355"/>
			<point x="517" y="449"/>
			<point x="499" y="551" type="curve"/>
			<point x="415" y="551" type="line"/>
			<point x="421" y="455"/>
			<point x="459" y="385"/>
			<point x="516" y="365" type="curve"/>
			<point x="516" y="355" type="line"/>
			<point x="93" y="352" type="line"/>
		</contour>
	</outline>
</glyph>
<glyph name="g.alt" format="2">
	<advance width="509"/>
	<outline>
		<contour>
			<point x="45" y="-44" type="curve" smooth="yes"/>
			<point x="45" y="-114"/>
			<point x="124" y="-161"/>
			<point x="242" y="-161" type="curve" smooth="yes"/>
			<point x="382" y="-161"/>
			<point x="463" y="-113"/>
			<point x="463" y="-30" type="curve" smooth="yes"/>
			<point x="463" y="156"/>
			<point x="155" y="44"/>
			<point x="155" y="128" type="curve" smooth="yes"/>
			<point x="155" y="137"/>
			<point x="160" y="145"/>
			<point x="169" y="151" type="curve"/>
			<point x="181" y="146"/>
			<point x="199" y="144"/>
			<point x="230" y="144" type="curve" smooth="yes"/>
			<point x="342" y="144"/>
			<point x="412" y="207"/>
			<point x="412" y="309" type="curve" smooth="yes"/>
			<point x="412" y="345"/>
			<point x="404" y="376"/>
			<point x="387" y="406" type="curve"/>
			<point x="464" y="404" type="line"/>
			<point x="464" y="492" type="line"/>
			<point x="408" y="492"/>
			<point x="369" y="481"/>
			<point x="344" y="458" type="curve"/>
			<point x="315" y="481"/>
			<point x="279" y="492"/>
			<point x="230" y="492" type="curve" smooth="yes"/>
			<point x="110" y="492"/>
			<point x="47" y="432"/>
			<point x="47" y="319" type="curve" smooth="yes"/>
			<point x="47" y="253"/>
			<point x="70" y="203"/>
			<point x="113" y="174" type="curve"/>
			<point x="88" y="154"/>
			<point x="76" y="132"/>
			<point x="76" y="109" type="curve" smooth="yes"/>
			<point x="76" y="82"/>
			<point x="90" y="61"/>
			<point x="118" y="50" type="curve"/>
			<point x="118" y="40" type="line"/>
			<point x="72" y="27"/>
			<point x="45" y="-4"/>
		</contour>
		<contour>
			<point x="126" y="-30" type="curve" smooth="yes"/>
			<point x="126" y="3"/>
			<point x="163" y="32"/>
			<point x="203" y="29" type="curve"/>
			<point x="353" y="19"/>
			<point x="376" y="11"/>
			<point x="376" y="-31" type="curve" smooth="yes"/>
			<point x="376" y="-69"/>
			<point x="328" y="-90"/>
			<point x="242" y="-90" type="curve" smooth="yes"/>
			<point x="164" y="-90"/>
			<point x="126" y="-70"/>
		</contour>
		<contour>
			<point x="136" y="319" type="curve" smooth="yes"/>
			<point x="136" y="382"/>
			<point x="174" y="425"/>
			<point x="230" y="425" type="curve" smooth="yes"/>
			<point x="287" y="425"/>
			<point x="321" y="385"/>
			<point x="321" y="319" type="curve" smooth="yes"/>
			<point x="321" y="250"/>
			<point x="288" y="211"/>
			<point x="230" y="211" type="curve" smooth="yes"/>
			<point x="172" y="211"/>
			<point x="136" y="252"/>
		</contour>
	</outline>
</glyph>
